<?xml version="1.0" standalone="no"?>
<!DOCTYPE svg PUBLIC "-//W3C//DTD SVG 20010904//EN"
 "http://www.w3.org/TR/2001/REC-SVG-20010904/DTD/svg10.dtd">
<svg version="1.0" xmlns="http://www.w3.org/2000/svg"
 width="376.000000pt" height="376.000000pt" viewBox="0 0 376.000000 376.000000"
 preserveAspectRatio="xMidYMid meet">
<metadata>
Created by potrace 1.14, written by Peter Selinger 2001-2017
</metadata>
<g transform="translate(0.000000,376.000000) scale(0.100000,-0.100000)"
fill="#000000" stroke="none">
<path d="M1702 3556 c-162 -41 -324 -170 -396 -317 -86 -175 -86 -363 1 -539
45 -93 159 -210 251 -258 l62 -33 0 -510 0 -509 -240 0 -241 0 -24 -25 c-24
-23 -25 -30 -25 -150 l0 -125 -125 0 c-120 0 -127 -1 -150 -25 -24 -23 -25
-30 -25 -150 l0 -125 -125 0 c-120 0 -127 -1 -150 -25 l-25 -24 0 -254 c0
-252 0 -254 23 -275 l23 -22 1345 0 1346 0 21 23 c21 23 22 30 22 276 l0 252
-25 24 c-23 24 -30 25 -150 25 l-125 0 0 125 c0 120 -1 127 -25 150 -23 24
-30 25 -150 25 l-125 0 0 125 c0 120 -1 127 -25 150 l-24 25 -276 0 -275 0 0
513 0 512 63 33 c120 62 232 194 279 330 33 97 33 287 0 384 -60 173 -200 314
-373 375 -90 32 -251 41 -337 19z m267 -155 c33 -10 80 -30 103 -44 65 -38
145 -128 181 -204 30 -64 32 -74 32 -183 0 -109 -2 -119 -32 -183 -59 -125
-170 -218 -298 -252 -307 -80 -611 193 -558 500 47 273 317 445 572 366z m-49
-1521 l0 -490 -75 0 -75 0 0 490 0 490 75 0 75 0 0 -490z m600 -715 l0 -75
-640 0 -640 0 0 75 0 75 640 0 640 0 0 -75z m300 -300 l0 -75 -940 0 -940 0 0
75 0 75 940 0 940 0 0 -75z m300 -375 l0 -150 -1240 0 -1240 0 0 150 0 150
1240 0 1240 0 0 -150z"/>
<path d="M1731 3248 c-99 -38 -172 -133 -186 -243 -6 -42 -4 -54 15 -77 41
-53 130 -26 130 39 0 71 76 153 143 153 14 0 33 3 42 6 24 10 46 60 39 89 -14
57 -87 70 -183 33z"/>
</g>
</svg>
